<svg width="34" height="34" viewBox="0 0 34 34" fill="none" xmlns="http://www.w3.org/2000/svg">
<rect x="1.00006" y="1" width="32" height="32" rx="16" fill="black" stroke="white" stroke-width="1.2"/>
<g clip-path="url(#clip0_22317_550)">
<path fill-rule="evenodd" clip-rule="evenodd" d="M13.7018 9.048C12.8504 9.08686 12.2687 9.22171 11.759 9.42057C11.2333 9.624 10.7876 9.89829 10.3418 10.3429C9.89841 10.7874 9.62412 11.2343 9.42069 11.76C9.22184 12.2686 9.08698 12.8503 9.04812 13.7017C9.00926 14.5543 9.00012 14.8274 9.00012 17C9.00012 19.1726 9.00926 19.4457 9.04812 20.2983C9.08698 21.1497 9.22184 21.7314 9.42069 22.2411C9.62412 22.7669 9.89841 23.2126 10.343 23.6583C10.7876 24.1017 11.2344 24.376 11.7601 24.5806C12.2687 24.7783 12.8504 24.912 13.7018 24.952C14.5556 24.9909 14.8276 25 17.0001 25C19.1727 25 19.4458 24.9909 20.2984 24.952C21.1498 24.9131 21.7316 24.7783 22.2413 24.5806C22.767 24.3749 23.2127 24.1017 23.6584 23.6571C24.1018 23.2126 24.3761 22.7657 24.5807 22.24C24.7784 21.7314 24.9121 21.1497 24.9521 20.2983C24.991 19.4446 25.0001 19.1726 25.0001 17C25.0001 14.8274 24.991 14.5543 24.9521 13.7017C24.9133 12.8503 24.7784 12.2686 24.5807 11.7589C24.3796 11.2249 24.0645 10.7413 23.6573 10.3417C23.2127 9.89829 22.7658 9.624 22.2401 9.42057C21.7316 9.22171 21.1498 9.08686 20.2984 9.048C19.4458 9.00914 19.1727 9 17.0001 9C14.8276 9 14.5544 9.00914 13.7018 9.048ZM12.8916 17C12.8916 18.0897 13.3244 19.1347 14.0949 19.9052C14.8654 20.6757 15.9105 21.1086 17.0001 21.1086C18.0898 21.1086 19.1348 20.6757 19.9053 19.9052C20.6758 19.1347 21.1087 18.0897 21.1087 17C21.1087 15.9103 20.6758 14.8653 19.9053 14.0948C19.1348 13.3243 18.0898 12.8914 17.0001 12.8914C15.9105 12.8914 14.8654 13.3243 14.0949 14.0948C13.3244 14.8653 12.8916 15.9103 12.8916 17ZM17.0001 19.6663C16.293 19.6663 15.6148 19.3854 15.1148 18.8853C14.6147 18.3853 14.3338 17.7071 14.3338 17C14.3338 16.2929 14.6147 15.6147 15.1148 15.1147C15.6148 14.6146 16.293 14.3337 17.0001 14.3337C17.7073 14.3337 18.3854 14.6146 18.8855 15.1147C19.3855 15.6147 19.6664 16.2929 19.6664 17C19.6664 17.7071 19.3855 18.3853 18.8855 18.8853C18.3854 19.3854 17.7073 19.6663 17.0001 19.6663ZM22.6001 12.44C22.6001 12.5661 22.5753 12.6909 22.527 12.8074C22.4788 12.9238 22.4081 13.0297 22.3189 13.1188C22.2298 13.208 22.124 13.2787 22.0075 13.3269C21.891 13.3752 21.7662 13.4 21.6401 13.4C21.5141 13.4 21.3892 13.3752 21.2727 13.3269C21.1563 13.2787 21.0504 13.208 20.9613 13.1188C20.8722 13.0297 20.8014 12.9238 20.7532 12.8074C20.705 12.6909 20.6801 12.5661 20.6801 12.44C20.6801 12.1854 20.7813 11.9412 20.9613 11.7612C21.1413 11.5811 21.3855 11.48 21.6401 11.48C21.8947 11.48 22.1389 11.5811 22.3189 11.7612C22.499 11.9412 22.6001 12.1854 22.6001 12.44Z" fill="white"/>
</g>
<defs>
<clipPath id="clip0_22317_550">
<rect width="32" height="32" fill="white" transform="translate(1.00006 1)"/>
</clipPath>
</defs>
</svg>
